# MagicaVoxel @ Ephtracy

# group
o 

# material
mtllib Mine.mtl
usemtl palette

# normals
vn -1 0 0
vn 1 0 0
vn 0 0 1
vn 0 0 -1
vn 0 -1 0
vn 0 1 0

# texcoords
vt 0.853516 0.5
vt 0.869141 0.5
vt 0.900391 0.5
vt 0.904297 0.5
vt 0.978516 0.5

# verts
v -0.6 0 1.2
v -0.6 0 1.1
v -0.6 0 0.7
v -0.6 0 0.6
v -0.6 0.3 1.2
v -0.6 0.3 1.1
v -0.6 0.3 0.7
v -0.6 0.3 0.6
v -0.6 0.4 1.1
v -0.6 0.4 0.7
v -0.5 0.3 1.2
v -0.5 0.3 1.1
v -0.5 0.3 0.7
v -0.5 0.3 0.6
v -0.5 0.4 1.2
v -0.5 0.4 1.1
v -0.5 0.4 0.7
v -0.5 0.4 0.6
v -0.4 0.1 1.2
v -0.4 0.1 1.1
v -0.4 0.1 0.7
v -0.4 0.1 0.6
v -0.4 0.3 1.2
v -0.4 0.3 1.1
v -0.4 0.3 0.7
v -0.4 0.3 0.6
v -0.4 0.4 0.9
v -0.4 0.4 0.8
v -0.4 0.5 0.9
v -0.4 0.5 0.8
v -0.1 0.4 0.9
v -0.1 0.4 0.8
v -0.1 0.5 0.9
v -0.1 0.5 0.8
v 0.1 0.1 1.2
v 0.1 0.1 1.1
v 0.1 0.1 0.7
v 0.1 0.1 0.6
v 0.1 0.3 1.2
v 0.1 0.3 1.1
v 0.1 0.3 0.7
v 0.1 0.3 0.6
v -0.5 0.1 1.2
v -0.5 0.1 1.1
v -0.5 0.1 0.7
v -0.5 0.1 0.6
v -0.5 0.3 1.2
v -0.5 0.3 1.1
v -0.5 0.3 0.7
v -0.5 0.3 0.6
v -0.3 0.4 0.9
v -0.3 0.4 0.8
v -0.3 0.5 0.9
v -0.3 0.5 0.8
v -5.96046e-08 0.1 1.2
v -5.96046e-08 0.1 1.1
v -5.96046e-08 0.1 0.7
v -5.96046e-08 0.1 0.6
v -5.96046e-08 0.3 1.2
v -5.96046e-08 0.3 1.1
v -5.96046e-08 0.3 0.7
v -5.96046e-08 0.3 0.6
v -5.96046e-08 0.4 0.9
v -5.96046e-08 0.4 0.8
v -5.96046e-08 0.5 0.9
v -5.96046e-08 0.5 0.8
v 0.1 0.3 1.2
v 0.1 0.3 1.1
v 0.1 0.3 0.7
v 0.1 0.3 0.6
v 0.1 0.4 1.2
v 0.1 0.4 1.1
v 0.1 0.4 0.7
v 0.1 0.4 0.6
v 0.2 0 1.2
v 0.2 0 1.1
v 0.2 0 0.7
v 0.2 0 0.6
v 0.2 0.3 1.2
v 0.2 0.3 1.1
v 0.2 0.3 0.7
v 0.2 0.3 0.6
v 0.2 0.4 1.1
v 0.2 0.4 0.7
v -0.6 0 1.2
v -0.6 0.3 1.2
v -0.5 0.1 1.2
v -0.5 0.3 1.2
v -0.5 0.4 1.2
v -0.4 0.1 1.2
v -0.4 0.3 1.2
v -0.3 0.2 1.2
v -0.3 0.3 1.2
v -0.1 0.2 1.2
v -0.1 0.3 1.2
v -5.96046e-08 0.1 1.2
v -5.96046e-08 0.3 1.2
v 0.1 0.1 1.2
v 0.1 0.3 1.2
v 0.1 0.4 1.2
v 0.2 0 1.2
v 0.2 0.3 1.2
v -0.6 0.3 1.1
v -0.6 0.4 1.1
v -0.5 0.1 1.1
v -0.5 0.3 1.1
v -0.5 0.4 1.1
v -0.4 0.1 1.1
v -0.4 0.3 1.1
v -5.96046e-08 0.1 1.1
v -5.96046e-08 0.3 1.1
v 0.1 0.1 1.1
v 0.1 0.3 1.1
v 0.1 0.4 1.1
v 0.2 0.3 1.1
v 0.2 0.4 1.1
v -0.4 0.4 0.9
v -0.4 0.5 0.9
v -0.3 0.4 0.9
v -0.3 0.5 0.9
v -0.1 0.4 0.9
v -0.1 0.5 0.9
v -5.96046e-08 0.4 0.9
v -5.96046e-08 0.5 0.9
v -0.4 0.4 0.8
v -0.4 0.5 0.8
v -0.3 0.4 0.8
v -0.3 0.5 0.8
v -0.1 0.4 0.8
v -0.1 0.5 0.8
v -5.96046e-08 0.4 0.8
v -5.96046e-08 0.5 0.8
v -0.6 0.3 0.7
v -0.6 0.4 0.7
v -0.5 0.1 0.7
v -0.5 0.3 0.7
v -0.5 0.4 0.7
v -0.4 0.1 0.7
v -0.4 0.3 0.7
v -5.96046e-08 0.1 0.7
v -5.96046e-08 0.3 0.7
v 0.1 0.1 0.7
v 0.1 0.3 0.7
v 0.1 0.4 0.7
v 0.2 0.3 0.7
v 0.2 0.4 0.7
v -0.6 0 0.6
v -0.6 0.3 0.6
v -0.5 0.1 0.6
v -0.5 0.3 0.6
v -0.5 0.4 0.6
v -0.4 0.1 0.6
v -0.4 0.3 0.6
v -0.3 0.2 0.6
v -0.3 0.3 0.6
v -0.1 0.2 0.6
v -0.1 0.3 0.6
v -5.96046e-08 0.1 0.6
v -5.96046e-08 0.3 0.6
v 0.1 0.1 0.6
v 0.1 0.3 0.6
v 0.1 0.4 0.6
v 0.2 0 0.6
v 0.2 0.3 0.6
v -0.6 0 1.2
v 0.2 0 1.2
v -0.6 0 1.1
v 0.2 0 1.1
v -0.6 0 0.7
v 0.2 0 0.7
v -0.6 0 0.6
v 0.2 0 0.6
v -0.5 0.3 1.2
v -0.4 0.3 1.2
v -5.96046e-08 0.3 1.2
v 0.1 0.3 1.2
v -0.5 0.3 1.1
v -0.4 0.3 1.1
v -5.96046e-08 0.3 1.1
v 0.1 0.3 1.1
v -0.5 0.3 0.7
v -0.4 0.3 0.7
v -5.96046e-08 0.3 0.7
v 0.1 0.3 0.7
v -0.5 0.3 0.6
v -0.4 0.3 0.6
v -5.96046e-08 0.3 0.6
v 0.1 0.3 0.6
v -0.5 0.1 1.2
v -0.4 0.1 1.2
v -5.96046e-08 0.1 1.2
v 0.1 0.1 1.2
v -0.5 0.1 1.1
v -0.4 0.1 1.1
v -5.96046e-08 0.1 1.1
v 0.1 0.1 1.1
v -0.5 0.1 0.7
v -0.4 0.1 0.7
v -5.96046e-08 0.1 0.7
v 0.1 0.1 0.7
v -0.5 0.1 0.6
v -0.4 0.1 0.6
v -5.96046e-08 0.1 0.6
v 0.1 0.1 0.6
v -0.6 0.3 1.2
v -0.5 0.3 1.2
v 0.1 0.3 1.2
v 0.2 0.3 1.2
v -0.6 0.3 1.1
v -0.5 0.3 1.1
v 0.1 0.3 1.1
v 0.2 0.3 1.1
v -0.6 0.3 0.7
v -0.5 0.3 0.7
v 0.1 0.3 0.7
v 0.2 0.3 0.7
v -0.6 0.3 0.6
v -0.5 0.3 0.6
v 0.1 0.3 0.6
v 0.2 0.3 0.6
v -0.5 0.4 1.2
v 0.1 0.4 1.2
v -0.6 0.4 1.1
v -0.5 0.4 1.1
v 0.1 0.4 1.1
v 0.2 0.4 1.1
v -0.4 0.4 0.9
v -0.3 0.4 0.9
v -0.1 0.4 0.9
v -5.96046e-08 0.4 0.9
v -0.4 0.4 0.8
v -0.3 0.4 0.8
v -0.1 0.4 0.8
v -5.96046e-08 0.4 0.8
v -0.6 0.4 0.7
v -0.5 0.4 0.7
v 0.1 0.4 0.7
v 0.2 0.4 0.7
v -0.5 0.4 0.6
v 0.1 0.4 0.6
v -0.4 0.5 0.9
v -0.3 0.5 0.9
v -0.1 0.5 0.9
v -5.96046e-08 0.5 0.9
v -0.4 0.5 0.8
v -0.3 0.5 0.8
v -0.1 0.5 0.8
v -5.96046e-08 0.5 0.8

# faces
f 5/4/1 2/4/1 1/4/1
f 6/3/1 3/3/1 2/3/1
f 6/4/1 2/4/1 5/4/1
f 7/4/1 4/4/1 3/4/1
f 7/3/1 3/3/1 6/3/1
f 8/4/1 4/4/1 7/4/1
f 9/3/1 7/3/1 6/3/1
f 10/3/1 7/3/1 9/3/1
f 15/4/1 12/4/1 11/4/1
f 16/4/1 12/4/1 15/4/1
f 17/4/1 14/4/1 13/4/1
f 18/4/1 14/4/1 17/4/1
f 23/3/1 20/3/1 19/3/1
f 24/3/1 20/3/1 23/3/1
f 25/3/1 22/3/1 21/3/1
f 26/3/1 22/3/1 25/3/1
f 29/2/1 28/2/1 27/2/1
f 30/2/1 28/2/1 29/2/1
f 33/5/1 32/5/1 31/5/1
f 34/5/1 32/5/1 33/5/1
f 39/4/1 36/4/1 35/4/1
f 40/4/1 36/4/1 39/4/1
f 41/4/1 38/4/1 37/4/1
f 42/4/1 38/4/1 41/4/1
f 43/4/2 44/4/2 47/4/2
f 47/4/2 44/4/2 48/4/2
f 45/4/2 46/4/2 49/4/2
f 49/4/2 46/4/2 50/4/2
f 51/2/2 52/2/2 53/2/2
f 53/2/2 52/2/2 54/2/2
f 55/3/2 56/3/2 59/3/2
f 59/3/2 56/3/2 60/3/2
f 57/3/2 58/3/2 61/3/2
f 61/3/2 58/3/2 62/3/2
f 63/5/2 64/5/2 65/5/2
f 65/5/2 64/5/2 66/5/2
f 67/4/2 68/4/2 71/4/2
f 71/4/2 68/4/2 72/4/2
f 69/4/2 70/4/2 73/4/2
f 73/4/2 70/4/2 74/4/2
f 75/4/2 76/4/2 79/4/2
f 76/3/2 77/3/2 80/3/2
f 79/4/2 76/4/2 80/4/2
f 77/4/2 78/4/2 81/4/2
f 80/3/2 77/3/2 81/3/2
f 81/4/2 78/4/2 82/4/2
f 80/3/2 81/3/2 83/3/2
f 83/3/2 81/3/2 84/3/2
f 87/4/3 86/4/3 85/4/3
f 88/4/3 86/4/3 87/4/3
f 90/4/3 87/4/3 85/4/3
f 91/4/3 89/4/3 88/4/3
f 92/3/3 91/3/3 90/3/3
f 93/4/3 89/4/3 91/4/3
f 93/3/3 91/3/3 92/3/3
f 94/3/3 92/3/3 90/3/3
f 94/1/3 93/1/3 92/1/3
f 95/4/3 89/4/3 93/4/3
f 95/1/3 93/1/3 94/1/3
f 96/4/3 90/4/3 85/4/3
f 96/3/3 94/3/3 90/3/3
f 96/3/3 95/3/3 94/3/3
f 97/4/3 89/4/3 95/4/3
f 97/3/3 95/3/3 96/3/3
f 98/4/3 96/4/3 85/4/3
f 99/4/3 89/4/3 97/4/3
f 100/4/3 89/4/3 99/4/3
f 101/4/3 98/4/3 85/4/3
f 101/4/3 99/4/3 98/4/3
f 102/4/3 99/4/3 101/4/3
f 106/3/3 104/3/3 103/3/3
f 107/3/3 104/3/3 106/3/3
f 108/3/3 106/3/3 105/3/3
f 109/3/3 106/3/3 108/3/3
f 112/3/3 111/3/3 110/3/3
f 113/3/3 111/3/3 112/3/3
f 115/3/3 114/3/3 113/3/3
f 116/3/3 114/3/3 115/3/3
f 119/2/3 118/2/3 117/2/3
f 120/2/3 118/2/3 119/2/3
f 123/5/3 122/5/3 121/5/3
f 124/5/3 122/5/3 123/5/3
f 125/2/4 126/2/4 127/2/4
f 127/2/4 126/2/4 128/2/4
f 129/5/4 130/5/4 131/5/4
f 131/5/4 130/5/4 132/5/4
f 133/3/4 134/3/4 136/3/4
f 136/3/4 134/3/4 137/3/4
f 135/3/4 136/3/4 138/3/4
f 138/3/4 136/3/4 139/3/4
f 140/3/4 141/3/4 142/3/4
f 142/3/4 141/3/4 143/3/4
f 143/3/4 144/3/4 145/3/4
f 145/3/4 144/3/4 146/3/4
f 147/4/4 148/4/4 149/4/4
f 149/4/4 148/4/4 150/4/4
f 147/4/4 149/4/4 152/4/4
f 150/4/4 151/4/4 153/4/4
f 152/3/4 153/3/4 154/3/4
f 153/4/4 151/4/4 155/4/4
f 154/3/4 153/3/4 155/3/4
f 152/3/4 154/3/4 156/3/4
f 154/1/4 155/1/4 156/1/4
f 155/4/4 151/4/4 157/4/4
f 156/1/4 155/1/4 157/1/4
f 147/4/4 152/4/4 158/4/4
f 152/3/4 156/3/4 158/3/4
f 156/3/4 157/3/4 158/3/4
f 157/4/4 151/4/4 159/4/4
f 158/3/4 157/3/4 159/3/4
f 147/4/4 158/4/4 160/4/4
f 159/4/4 151/4/4 161/4/4
f 161/4/4 151/4/4 162/4/4
f 147/4/4 160/4/4 163/4/4
f 160/4/4 161/4/4 163/4/4
f 163/4/4 161/4/4 164/4/4
f 167/4/5 166/4/5 165/4/5
f 168/4/5 166/4/5 167/4/5
f 169/3/5 168/3/5 167/3/5
f 170/3/5 168/3/5 169/3/5
f 171/4/5 170/4/5 169/4/5
f 172/4/5 170/4/5 171/4/5
f 177/4/5 174/4/5 173/4/5
f 178/4/5 174/4/5 177/4/5
f 179/4/5 176/4/5 175/4/5
f 180/4/5 176/4/5 179/4/5
f 185/4/5 182/4/5 181/4/5
f 186/4/5 182/4/5 185/4/5
f 187/4/5 184/4/5 183/4/5
f 188/4/5 184/4/5 187/4/5
f 189/4/6 190/4/6 193/4/6
f 193/4/6 190/4/6 194/4/6
f 191/4/6 192/4/6 195/4/6
f 195/4/6 192/4/6 196/4/6
f 197/4/6 198/4/6 201/4/6
f 201/4/6 198/4/6 202/4/6
f 199/4/6 200/4/6 203/4/6
f 203/4/6 200/4/6 204/4/6
f 205/4/6 206/4/6 209/4/6
f 209/4/6 206/4/6 210/4/6
f 207/4/6 208/4/6 211/4/6
f 211/4/6 208/4/6 212/4/6
f 213/4/6 214/4/6 217/4/6
f 217/4/6 214/4/6 218/4/6
f 215/4/6 216/4/6 219/4/6
f 219/4/6 216/4/6 220/4/6
f 221/4/6 222/4/6 224/4/6
f 224/4/6 222/4/6 225/4/6
f 223/3/6 224/3/6 227/3/6
f 225/3/6 226/3/6 227/3/6
f 224/3/6 225/3/6 227/3/6
f 227/3/6 226/3/6 228/3/6
f 228/3/6 226/3/6 229/3/6
f 229/3/6 226/3/6 230/3/6
f 223/3/6 227/3/6 231/3/6
f 228/3/6 229/3/6 232/3/6
f 232/3/6 229/3/6 233/3/6
f 230/3/6 226/3/6 234/3/6
f 232/3/6 233/3/6 235/3/6
f 233/3/6 234/3/6 235/3/6
f 223/3/6 231/3/6 235/3/6
f 231/3/6 232/3/6 235/3/6
f 235/3/6 234/3/6 236/3/6
f 234/3/6 226/3/6 237/3/6
f 236/3/6 234/3/6 237/3/6
f 237/3/6 226/3/6 238/3/6
f 236/4/6 237/4/6 239/4/6
f 239/4/6 237/4/6 240/4/6
f 241/2/6 242/2/6 245/2/6
f 245/2/6 242/2/6 246/2/6
f 243/5/6 244/5/6 247/5/6
f 247/5/6 244/5/6 248/5/6
